<svg width="12" height="12" viewBox="0 0 12 12" fill="none" xmlns="http://www.w3.org/2000/svg">
<path d="M4 1H2C1.44772 1 1 1.44772 1 2V4C1 4.55228 1.44772 5 2 5H4C4.55228 5 5 4.55228 5 4V2C5 1.44772 4.55228 1 4 1Z" fill="none" stroke="#161719" stroke-linecap="round" stroke-linejoin="round"/>
<path d="M10 1H8C7.44772 1 7 1.44772 7 2V4C7 4.55228 7.44772 5 8 5H10C10.5523 5 11 4.55228 11 4V2C11 1.44772 10.5523 1 10 1Z" fill="none" stroke="#161719" stroke-linecap="round" stroke-linejoin="round"/>
<path d="M4 7H2C1.44772 7 1 7.44772 1 8V10C1 10.5523 1.44772 11 2 11H4C4.55228 11 5 10.5523 5 10V8C5 7.44772 4.55228 7 4 7Z" fill="none" stroke="#161719" stroke-linecap="round" stroke-linejoin="round"/>
<path d="M10 7H8C7.44772 7 7 7.44772 7 8V10C7 10.5523 7.44772 11 8 11H10C10.5523 11 11 10.5523 11 10V8C11 7.44772 10.5523 7 10 7Z" fill="none" stroke="#161719" stroke-linecap="round" stroke-linejoin="round"/>
</svg>
